<?xml version="1.0" standalone="no"?>
<!DOCTYPE svg PUBLIC "-//W3C//DTD SVG 20010904//EN"
 "http://www.w3.org/TR/2001/REC-SVG-20010904/DTD/svg10.dtd">
<svg version="1.0" xmlns="http://www.w3.org/2000/svg"
 width="1024.000000pt" height="1024.000000pt" viewBox="0 0 1024.000000 1024.000000"
 preserveAspectRatio="xMidYMid meet">
<metadata>
Created by potrace 1.14, written by Peter Selinger 2001-2017
</metadata>
<g transform="translate(0.000000,1024.000000) scale(0.100000,-0.100000)"
fill="#000000" stroke="none">
<path d="M4763 7535 c-181 -180 -368 -365 -416 -412 l-88 -85 290 -287 c159
-157 556 -549 881 -871 326 -322 597 -588 603 -592 7 -4 8 -8 3 -8 -5 0 4 -10
20 -22 16 -13 80 -74 143 -135 63 -62 118 -113 123 -113 27 0 -19 -52 -257
-289 -145 -146 -261 -269 -258 -274 3 -6 2 -7 -3 -4 -6 3 -15 2 -22 -2 -9 -5
3 -24 38 -59 29 -29 56 -49 62 -46 6 4 8 3 4 -4 -3 -6 32 -48 79 -95 47 -46
85 -87 85 -91 0 -4 19 -24 42 -44 23 -20 98 -92 167 -159 l126 -122 688 686
c378 376 687 689 685 694 -3 8 -318 330 -318 324 0 -1 -69 67 -152 152 -84 85
-353 353 -597 596 -244 243 -532 531 -640 640 -108 110 -215 217 -237 238 -23
22 -77 76 -120 120 -44 45 -90 91 -103 102 -13 12 -123 122 -245 245 -121 123
-229 228 -238 233 -15 8 -72 -45 -345 -316z"/>
<path d="M3713 6443 c-7 -3 -13 -11 -13 -19 0 -8 -4 -14 -10 -14 -5 0 -134
-123 -285 -272 -151 -150 -445 -441 -654 -646 -208 -206 -378 -380 -377 -387
3 -22 37 -55 49 -48 5 3 7 2 4 -4 -8 -13 37 -56 48 -46 4 5 5 3 2 -3 -8 -14
36 -57 48 -47 4 5 5 3 2 -3 -7 -13 72 -91 88 -86 5 2 7 0 3 -4 -11 -10 12 -35
25 -27 5 3 7 2 4 -4 -3 -5 53 -65 125 -134 71 -68 159 -153 195 -189 36 -36
70 -63 77 -62 6 2 8 1 4 -3 -9 -10 24 -45 35 -38 6 3 8 2 5 -3 -6 -10 189
-204 197 -196 3 3 5 0 5 -6 0 -16 99 -108 112 -104 5 1 6 -2 3 -9 -7 -11 34
-46 48 -41 5 1 6 -1 3 -6 -6 -11 107 -125 117 -117 4 3 5 2 2 -2 -8 -10 67
-83 78 -76 6 3 7 1 4 -4 -8 -13 27 -46 37 -36 4 5 6 3 4 -4 -2 -6 44 -57 102
-113 58 -56 139 -135 181 -176 42 -40 74 -76 71 -79 -3 -3 -1 -5 5 -5 5 0 56
-46 113 -102 57 -57 107 -102 112 -100 4 1 8 -4 8 -11 0 -15 61 -73 72 -69 5
1 7 -2 5 -7 -3 -13 225 -231 235 -225 5 3 7 2 6 -3 -5 -14 54 -73 66 -66 6 3
8 2 4 -2 -8 -9 388 -409 436 -440 l28 -18 196 195 c108 108 266 263 349 344
l153 149 -187 188 c-102 103 -190 187 -195 187 -4 0 -8 7 -8 15 0 8 -7 15 -16
15 -10 0 -14 5 -10 16 3 8 2 13 -3 10 -11 -7 -51 27 -51 43 0 7 -4 9 -10 6 -5
-3 -10 1 -10 10 0 9 -4 14 -9 10 -5 -3 -12 4 -16 15 -3 11 -13 20 -21 20 -8 0
-14 7 -14 15 0 8 -7 15 -16 15 -11 0 -14 5 -10 16 5 12 2 15 -9 10 -10 -4 -19
3 -27 19 -6 14 -15 25 -20 25 -8 0 -83 74 -148 147 -14 15 -38 36 -52 46 -17
12 -25 24 -21 35 4 10 3 13 -6 8 -8 -5 -115 94 -314 292 -166 165 -414 412
-552 547 -137 136 -249 252 -247 257 1 5 -1 7 -6 5 -4 -3 -39 25 -76 63 l-69
69 74 72 c284 275 576 568 568 571 -5 2 -150 143 -321 314 -172 171 -319 309
-325 307z"/>
<path d="M4865 5888 c-60 -60 -255 -253 -431 -428 l-321 -319 186 -184 c102
-102 328 -325 501 -495 l315 -311 300 299 c165 165 360 358 433 429 l133 131
-271 267 c-149 148 -302 299 -341 336 -38 38 -66 73 -63 79 4 7 2 8 -4 4 -7
-4 -69 51 -150 131 -76 76 -147 145 -158 154 -18 15 -25 10 -129 -93z"/>
</g>
</svg>
